<?xml version="1.0" encoding="utf-8"?>
<svg xmlns="http://www.w3.org/2000/svg" viewBox="0 0 50 50" width="24" height="24">
  <path d="M14 4C8.486 4 4 8.486 4 14L4 36C4 41.514 8.486 46 14 46L36 46C41.514 46 46 41.514 46 36L46 14C46 8.486 41.514 4 36 4L14 4 z M 21.132812 13L28.867188 13C29.740188 13 30.560719 13.464891 31.011719 14.212891L32.845703 17.273438C33.114703 17.721438 33.608812 18 34.132812 18L39.5 18C40.327 18 41 18.673 41 19.5L41 35.5C41 36.327 40.327 37 39.5 37L10.5 37C9.673 37 9 36.327 9 35.5L9 19.5C9 18.673 9.673 18 10.5 18L15.867188 18C16.390187 18 16.885297 17.721484 17.154297 17.271484L18.988281 14.212891C19.438281 13.464891 20.259812 13 21.132812 13 z M 12 14L14 14C14.552 14 15 14.448 15 15L15 16L11 16L11 15C11 14.448 11.448 14 12 14 z M 34 19.5 A 1 1 0 0 0 34 21.5 A 1 1 0 0 0 34 19.5 z M 25 20C20.864 20 17.5 23.364 17.5 27.5C17.5 31.636 20.864 35 25 35C29.136 35 32.5 31.636 32.5 27.5C32.5 23.364 29.136 20 25 20 z M 25 22C28.032 22 30.5 24.468 30.5 27.5C30.5 30.532 28.032 33 25 33C21.968 33 19.5 30.532 19.5 27.5C19.5 24.468 21.968 22 25 22 z" fill="#FFFFFF" />
</svg>