<?xml version="1.0" encoding="utf-8"?>
<svg xmlns="http://www.w3.org/2000/svg" viewBox="0 0 30 30" width="24" height="24">
  <path d="M4 5C2.895 5 2 5.895 2 7L2 23C2 24.105 2.895 25 4 25L26 25C27.105 25 28 24.105 28 23L28 7C28 5.895 27.105 5 26 5L4 5 z M 23 8C24.105 8 25 8.895 25 10C25 11.105 24.105 12 23 12C21.895 12 21 11.105 21 10C21 8.895 21.895 8 23 8 z M 9 12.001953C9.61925 12.001953 10.238437 12.238437 10.710938 12.710938L13.972656 15.972656L15 17L16.15625 18.15625C16.57825 18.57825 17.259641 18.574344 17.681641 18.152344C18.104641 17.730344 18.104641 17.044094 17.681641 16.621094L16.529297 15.470703L17.289062 14.710938C18.234063 13.765937 19.765937 13.765937 20.710938 14.710938L25 19L25 22L5 22L5 15L7.2890625 12.710938C7.7615625 12.238437 8.38075 12.001953 9 12.001953 z" fill="#FFFFFF" />
</svg>